<svg height="464pt" viewBox="0 0 464 464" width="464pt" xmlns="http://www.w3.org/2000/svg">
<path d="m280 72c-.066406-17.117188-9.199219-32.917969-24-41.519531-7.269531-4.28125-15.5625-6.519531-24-6.480469-8.460938.003906-16.769531 2.257812-24.070312 6.535156-2.707032 1.558594-5.246094 3.390625-7.578126 5.464844l-.351562.3125c-2.316406 2.082031-4.425781 4.378906-6.304688 6.863281-12.605468 16.691407-12.949218 39.625-.851562 56.6875 12.09375 17.0625 33.851562 24.328125 53.773438 17.960938 19.921874-6.371094 33.429687-24.90625 33.382812-45.824219zm0 0" fill="#2d2d30"/>
<path d="m232 120c-88.367188 0-160-41.070312-160-72l-72 80s58.328125 81.152344 70.480469 104c25.519531 48 17.519531 80 17.519531 80s40-32 72-32c48 0 72 184 72 184s31.296875-184 80-184c32 0 64 32 64 32s-8-32 17.519531-80c12.152344-22.847656 70.480469-104 70.480469-104l-72-80c0 30.929688-71.632812 72-160 72zm0 0" fill="#2d2d30"/>
<g fill="#ff5023">
<path d="m270.320312 43.199219c6.125-4.472657 9.726563-11.617188 9.679688-19.199219 0-13.253906-10.746094-24-24-24v30.480469c5.589844 3.222656 10.460938 7.550781 14.320312 12.71875zm0 0"/>
<path d="m200 36.3125.351562-.3125c2.339844-2.066406 4.878907-3.894531 7.578126-5.464844l.070312-.054687v-30.480469c-13.253906 0-24 10.746094-24 24-.046875 7.582031 3.554688 14.726562 9.679688 19.199219 1.882812-2.492188 4-4.796875 6.320312-6.886719zm0 0"/>
</g>
</svg>